<mxfile host="app.diagrams.net" agent="Mozilla/5.0 (Windows NT 10.0; Win64; x64) AppleWebKit/537.36 (KHTML, like Gecko) Chrome/128.0.0.0 Safari/537.36" version="24.7.16">
  <diagram name="DFD Jogo da Memória" id="NHT4T6_ekoqku4iS0h0D">
    <mxGraphModel dx="1035" dy="595" grid="1" gridSize="10" guides="1" tooltips="1" connect="1" arrows="1" fold="1" page="1" pageScale="1" pageWidth="827" pageHeight="1169" math="0" shadow="0">
      <root>
        <mxCell id="0" />
        <mxCell id="1" parent="0" />
        <mxCell id="LwUwJjQ5ndxGovikI5l5-1" value="Usuário (Jogador)" style="ellipse;whiteSpace=wrap;html=1;" vertex="1" parent="1">
          <mxGeometry x="40" y="280" width="120" height="60" as="geometry" />
        </mxCell>
        <mxCell id="LwUwJjQ5ndxGovikI5l5-2" value="Iniciar Jogo" style="rounded=1;whiteSpace=wrap;html=1;" vertex="1" parent="1">
          <mxGeometry x="220" y="100" width="120" height="60" as="geometry" />
        </mxCell>
        <mxCell id="LwUwJjQ5ndxGovikI5l5-3" value="Escolher Carta" style="rounded=1;whiteSpace=wrap;html=1;" vertex="1" parent="1">
          <mxGeometry x="220" y="200" width="120" height="60" as="geometry" />
        </mxCell>
        <mxCell id="LwUwJjQ5ndxGovikI5l5-4" value="Comparar Cartas" style="rounded=1;whiteSpace=wrap;html=1;" vertex="1" parent="1">
          <mxGeometry x="220" y="300" width="120" height="60" as="geometry" />
        </mxCell>
        <mxCell id="LwUwJjQ5ndxGovikI5l5-5" value="Atualizar Tabuleiro" style="rounded=1;whiteSpace=wrap;html=1;" vertex="1" parent="1">
          <mxGeometry x="220" y="400" width="120" height="60" as="geometry" />
        </mxCell>
        <mxCell id="LwUwJjQ5ndxGovikI5l5-6" value="Verificar Fim do Jogo" style="rounded=1;whiteSpace=wrap;html=1;" vertex="1" parent="1">
          <mxGeometry x="220" y="500" width="120" height="60" as="geometry" />
        </mxCell>
        <mxCell id="LwUwJjQ5ndxGovikI5l5-7" value="Estado do Tabuleiro" style="shape=folder;whiteSpace=wrap;html=1;" vertex="1" parent="1">
          <mxGeometry x="400" y="300" width="120" height="60" as="geometry" />
        </mxCell>
        <mxCell id="LwUwJjQ5ndxGovikI5l5-8" value="Cartas" style="shape=folder;whiteSpace=wrap;html=1;" vertex="1" parent="1">
          <mxGeometry x="400" y="400" width="120" height="60" as="geometry" />
        </mxCell>
        <mxCell id="LwUwJjQ5ndxGovikI5l5-9" style="edgeStyle=orthogonalEdgeStyle;rounded=0;orthogonalLoop=1;" edge="1" parent="1" source="LwUwJjQ5ndxGovikI5l5-1" target="LwUwJjQ5ndxGovikI5l5-2">
          <mxGeometry relative="1" as="geometry" />
        </mxCell>
        <mxCell id="LwUwJjQ5ndxGovikI5l5-10" style="edgeStyle=orthogonalEdgeStyle;rounded=0;orthogonalLoop=1;" edge="1" parent="1" source="LwUwJjQ5ndxGovikI5l5-2" target="LwUwJjQ5ndxGovikI5l5-3">
          <mxGeometry relative="1" as="geometry" />
        </mxCell>
        <mxCell id="LwUwJjQ5ndxGovikI5l5-11" style="edgeStyle=orthogonalEdgeStyle;rounded=0;orthogonalLoop=1;" edge="1" parent="1" source="LwUwJjQ5ndxGovikI5l5-3" target="LwUwJjQ5ndxGovikI5l5-4">
          <mxGeometry relative="1" as="geometry" />
        </mxCell>
        <mxCell id="LwUwJjQ5ndxGovikI5l5-12" style="edgeStyle=orthogonalEdgeStyle;rounded=0;orthogonalLoop=1;" edge="1" parent="1" source="LwUwJjQ5ndxGovikI5l5-4" target="LwUwJjQ5ndxGovikI5l5-5">
          <mxGeometry relative="1" as="geometry" />
        </mxCell>
        <mxCell id="LwUwJjQ5ndxGovikI5l5-13" style="edgeStyle=orthogonalEdgeStyle;rounded=0;orthogonalLoop=1;" edge="1" parent="1" source="LwUwJjQ5ndxGovikI5l5-5" target="LwUwJjQ5ndxGovikI5l5-6">
          <mxGeometry relative="1" as="geometry" />
        </mxCell>
        <mxCell id="LwUwJjQ5ndxGovikI5l5-14" style="edgeStyle=orthogonalEdgeStyle;rounded=0;orthogonalLoop=1;" edge="1" parent="1" source="LwUwJjQ5ndxGovikI5l5-1" target="LwUwJjQ5ndxGovikI5l5-3">
          <mxGeometry relative="1" as="geometry" />
        </mxCell>
        <mxCell id="LwUwJjQ5ndxGovikI5l5-15" style="edgeStyle=orthogonalEdgeStyle;rounded=0;orthogonalLoop=1;" edge="1" parent="1" source="LwUwJjQ5ndxGovikI5l5-4" target="LwUwJjQ5ndxGovikI5l5-7">
          <mxGeometry relative="1" as="geometry" />
        </mxCell>
        <mxCell id="LwUwJjQ5ndxGovikI5l5-16" style="edgeStyle=orthogonalEdgeStyle;rounded=0;orthogonalLoop=1;" edge="1" parent="1" source="LwUwJjQ5ndxGovikI5l5-5" target="LwUwJjQ5ndxGovikI5l5-8">
          <mxGeometry relative="1" as="geometry" />
        </mxCell>
      </root>
    </mxGraphModel>
  </diagram>
</mxfile>
